<?xml version="1.0" encoding="UTF-8"?>
<svg id="a" xmlns="http://www.w3.org/2000/svg" viewBox="0 0 1000 1000"><defs
><style>.b{fill:#006e43;}.c{fill:#3dae2b;}</style>
</defs>
<path class="b" d="m148.88,453.58c-.06,10.11-2.68,15.21-5.93,15.59-2.13.25-4.59-1.51-6.81-5.18-7.3-11.99-15.29-23.42-23.78-34.64,0-.02.01-.05.02-.07,3.29-17.7,8.56-35.75,17.58-51.45,11.28,22.72,19.06,50.47,18.92,75.75m-42.33-.59c7.97,7.14,10.15,12.84,8.37,15.95-1.16,2.04-4.07,3-8.34,2.5-14.29-1.68-28.54-2.34-42.96-2.44-.01-.02-.03-.04-.05-.06-13.61-16.2-25.93-34.45-33.84-54.16,26.98,6.39,56.18,19.74,76.82,38.22m-27.21,36.95c10.65-2.25,16.47-.4,17.78,3.12.86,2.31-.21,5.39-3.22,8.69-9.97,10.88-19.11,22.31-27.88,34.21h-.08c-21.47,1.59-43.8.7-64.75-4.52,21.35-18.91,50.28-35.61,78.16-41.49m12.17,45.57c4.66-9.91,9.63-13.64,13.05-12.6,2.25.68,3.9,3.4,4.5,7.77,1.92,13.79,4.69,27.32,8.07,40.86-.01.02-.03.04-.05.06-11.68,16.58-24.21,32.54-39.93,45.52-1.86-26.79,3-57.44,14.36-81.61m40.33,16.26c-4.14-9.07-3.83-15.22-1.03-17.34,1.84-1.39,4.78-1.13,8.2.89,10.44,6.16,21.2,11.92,32.48,16.49,0,.02,0,.05.01.07,4.06,16.95,6.42,34.74,5.38,52.18-18.78-12.3-35.82-32.1-45.04-52.29m35.52-22.34c-8.59-1.9-12.7-5.75-12.43-9.25.17-2.3,2.17-4.51,5.69-6.07,10.8-4.79,21.46-10.06,31.5-16.37.02.01.04.02.05.03,13.3,6.79,26.08,15.41,36.36,26.32-18.69,7.28-41.82,9.62-61.17,5.34m7.04-42.14c-6.8,5.95-12.04,6.95-14.33,4.54-1.5-1.58-1.8-4.64-.67-8.6,3.61-12.55,6.41-25.23,8.74-38.11.02,0,.04-.01.06-.02,13.71-6.42,27.47-12.3,42.69-13.89-7.19,20.54-20.22,41.86-36.49,56.09"/>
<path class="c" d="m129.96,377.84c-9.01,15.69-14.28,33.74-17.57,51.44,0,.02-.01.05-.02.07-2.26-2.94-5.26-6.48-7.86-9.71-9.84-12.26-20.72-23.72-31.73-34.98,18.07-7.25,37.91-9.63,57.18-6.82M0,473.87c16.84-2.06,33.76-3.94,50.52-4.51,4.33-.15,9.24-.37,13.12-.37-.02-.02-.03-.05-.05-.06-13.61-16.2-25.93-34.45-33.84-54.15-15.02,16.59-25.27,37.19-29.75,59.1m33.18,115.15c7.92-14.44,16.27-28.73,25.4-42.21,2.42-3.58,5.15-7.69,7.44-10.86-.03,0-.05,0-.08,0-21.46,1.59-43.79.71-64.74-4.52,5.36,21.6,16.34,41.71,31.98,57.59m101.08,32.58c-5.1-12.85-9.99-25.78-13.88-38.83-1.08-3.62-2.35-7.83-3.24-11.24-.01.02-.03.04-.04.06-11.68,16.57-24.21,32.53-39.93,45.52,18.98,5.56,37.41,8.17,57.09,4.49m78.79-56.14c-10.95-2.77-21.86-5.92-32.33-10.05-2.98-1.18-6.45-2.42-9.21-3.6,0,.02,0,.05.01.07,4.06,16.95,6.42,34.73,5.38,52.18,14.75-9.96,27.12-23.26,36.15-38.59m14.68-93.38c-8.79,7.23-17.83,14.23-27.38,20.35-2.67,1.71-5.7,3.78-8.23,5.31.02,0,.03.02.05.03,13.3,6.79,26.08,15.4,36.36,26.31,2.44-18.03,2.24-34.06-.8-52m-54.35-78.28c-.8,13.51-1.78,27.05-3.61,40.26-.5,3.58-1.06,7.76-1.62,11.06.02,0,.04-.02.06-.02,13.71-6.42,27.47-12.3,42.69-13.89-9.56-15.05-22.37-27.97-37.51-37.4"/>
</svg>